<?xml version="1.0" encoding="UTF-8" standalone="no"?>
<!-- Created with Inkscape (http://www.inkscape.org/) -->
<svg
   xmlns:dc="http://purl.org/dc/elements/1.1/"
   xmlns:cc="http://creativecommons.org/ns#"
   xmlns:rdf="http://www.w3.org/1999/02/22-rdf-syntax-ns#"
   xmlns:svg="http://www.w3.org/2000/svg"
   xmlns="http://www.w3.org/2000/svg"
   xmlns:sodipodi="http://sodipodi.sourceforge.net/DTD/sodipodi-0.dtd"
   xmlns:inkscape="http://www.inkscape.org/namespaces/inkscape"
   width="64"
   height="64"
   id="svg2"
   sodipodi:version="0.32"
   inkscape:version="0.46"
   version="1.0"
   sodipodi:docname="sound-studio-icon.svg"
   inkscape:output_extension="org.inkscape.output.svg.inkscape"
   inkscape:export-xdpi="22.5"
   inkscape:export-ydpi="22.5">
  <defs
     id="defs4">
    <linearGradient
       id="linearGradient3325">
      <stop
         id="stop3327"
         offset="0"
         style="stop-color:#ffffff;stop-opacity:1;" />
      <stop
         style="stop-color:#ffffff;stop-opacity:1;"
         offset="0.5"
         id="stop3333" />
      <stop
         id="stop3331"
         offset="1"
         style="stop-color:#dfdfdf;stop-opacity:1;" />
    </linearGradient>
    <linearGradient
       id="linearGradient3311">
      <stop
         style="stop-color:#0000ff;stop-opacity:1;"
         offset="0"
         id="stop3313" />
      <stop
         id="stop3319"
         offset="0.5"
         style="stop-color:#6ae4ff;stop-opacity:1;" />
      <stop
         style="stop-color:#ffffff;stop-opacity:1;"
         offset="1"
         id="stop3315" />
    </linearGradient>
    <linearGradient
       id="linearGradient3269">
      <stop
         style="stop-color:#00ff00;stop-opacity:1;"
         offset="0"
         id="stop3271" />
      <stop
         style="stop-color:#00c500;stop-opacity:1;"
         offset="1"
         id="stop3273" />
    </linearGradient>
    <inkscape:perspective
       sodipodi:type="inkscape:persp3d"
       inkscape:vp_x="0 : 32 : 1"
       inkscape:vp_y="0 : 1000 : 0"
       inkscape:vp_z="64 : 32 : 1"
       inkscape:persp3d-origin="32 : 21.333333 : 1"
       id="perspective22" />
    <filter
       inkscape:collect="always"
       id="filter3232">
      <feGaussianBlur
         inkscape:collect="always"
         stdDeviation="1.43"
         id="feGaussianBlur3234" />
    </filter>
  </defs>
  <sodipodi:namedview
     id="base"
     pagecolor="#000000"
     bordercolor="#666666"
     borderopacity="1.0"
     gridtolerance="10000"
     guidetolerance="10"
     objecttolerance="10"
     inkscape:pageopacity="0"
     inkscape:pageshadow="2"
     inkscape:zoom="8"
     inkscape:cx="35.612904"
     inkscape:cy="31.919773"
     inkscape:document-units="px"
     inkscape:current-layer="layer1"
     showgrid="true"
     inkscape:window-width="1024"
     inkscape:window-height="712"
     inkscape:window-x="-4"
     inkscape:window-y="-4">
    <inkscape:grid
       type="xygrid"
       id="grid2383"
       visible="true"
       enabled="true"
       empspacing="2"
       spacingx="1px"
       spacingy="1px" />
  </sodipodi:namedview>
  <metadata
     id="metadata7">
    <rdf:RDF>
      <cc:Work
         rdf:about="">
        <dc:format>image/svg+xml</dc:format>
        <dc:type
           rdf:resource="http://purl.org/dc/dcmitype/StillImage" />
      </cc:Work>
    </rdf:RDF>
  </metadata>
  <g
     inkscape:label="Layer 1"
     inkscape:groupmode="layer"
     id="layer1">
    <rect
       style="opacity:1;fill:#9494aa;fill-opacity:1;fill-rule:evenodd;stroke:none;stroke-width:2;stroke-linecap:round;stroke-miterlimit:4;stroke-dasharray:none;stroke-dashoffset:0;stroke-opacity:1"
       id="rect2407"
       width="64"
       height="64"
       x="0"
       y="0" />
    <path
       id="path3179"
       style="opacity:1;fill:none;fill-opacity:1;fill-rule:evenodd;stroke:#6464c8;stroke-width:2;stroke-linecap:butt;stroke-linejoin:miter;marker:none;marker-start:none;marker-mid:none;marker-end:none;stroke-miterlimit:4;stroke-dasharray:none;stroke-dashoffset:0;stroke-opacity:1;visibility:visible;display:inline;overflow:visible;enable-background:accumulate"
       d="M 17,0 L 17,64 M 33,0 L 33,64 M 49,0 L 49,64 M 64,15 L 0,15 M 64,31 L 0,31 M 64,47 L 0,47 M 1,0 L 1,64 M 64,63 L 0,63" />
    <path
       style="opacity:1;fill:none;fill-opacity:1;fill-rule:evenodd;stroke:#00ff00;stroke-width:4;stroke-linecap:butt;stroke-linejoin:miter;marker:none;marker-start:none;marker-mid:none;marker-end:none;stroke-miterlimit:4;stroke-dasharray:none;stroke-dashoffset:0;stroke-opacity:1;visibility:visible;display:inline;overflow:visible;enable-background:accumulate"
       d="M 72,4 L 65.625,31 C 64.625,36 61.625,47 59.625,47 C 57.625,47 54.861694,35.946776 53.625,31 C 51.625,23 48.75,11 44.75,11 C 40.75,11 37.456125,22.959665 35.625,31 C 32.747215,43.63614 30.875,45.5 29.875,45.5 C 28.875,45.5 27.564041,43.766809 26.625,41 C 25.306403,37.114858 22.566297,37.084646 20.625,41 C 18.170259,45.950908 16.062649,43.891182 12.625,31 C 8.625,16 2.625,16 -1.375,31 L -10,58"
       id="path3195"
       sodipodi:nodetypes="cssssssssc" />
    <path
       sodipodi:nodetypes="cssssssssc"
       id="path3226"
       d="M 72,4 L 65.625,31 C 64.625,36 61.625,47 59.625,47 C 57.625,47 54.861694,35.946776 53.625,31 C 51.625,23 48.75,11 44.75,11 C 40.75,11 37.456125,22.959665 35.625,31 C 32.747215,43.63614 30.875,45.5 29.875,45.5 C 28.875,45.5 27.564041,43.766809 26.625,41 C 25.306403,37.114858 22.566297,37.084646 20.625,41 C 18.170259,45.950908 16.062649,43.891182 12.625,31 C 8.625,16 2.625,16 -1.375,31 L -10,58"
       style="opacity:1;fill:none;fill-opacity:1;fill-rule:evenodd;stroke:#ffffff;stroke-width:3.50000000000000000;stroke-linecap:butt;stroke-linejoin:miter;marker:none;marker-start:none;marker-mid:none;marker-end:none;stroke-miterlimit:4;stroke-dasharray:none;stroke-dashoffset:0;stroke-opacity:1;visibility:visible;display:inline;overflow:visible;enable-background:accumulate;filter:url(#filter3232)" />
  </g>
</svg>
